<svg xmlns="http://www.w3.org/2000/svg" xmlns:xlink="http://www.w3.org/1999/xlink" width="500" zoomAndPan="magnify" viewBox="0 0 375 374.999991" height="500" preserveAspectRatio="xMidYMid meet" version="1.0"><defs><g/><clipPath id="0c09c6c74d"><path d="M 16 13.21875 L 119.429688 13.21875 L 119.429688 165 L 16 165 Z M 16 13.21875 " clip-rule="nonzero"/></clipPath><clipPath id="7872baa0d5"><path d="M 214 43 L 267.839844 43 L 267.839844 109 L 214 109 Z M 214 43 " clip-rule="nonzero"/></clipPath><clipPath id="b0370ac1a7"><rect x="0" width="268" y="0" height="123"/></clipPath></defs><rect x="-37.5" width="450" fill="#ffffff" y="-37.499999" height="449.999989" fill-opacity="1"/><rect x="-37.5" width="450" fill="#3c0d57" y="-37.499999" height="449.999989" fill-opacity="1"/><g clip-path="url(#0c09c6c74d)"><path fill="#f8f5f2" d="M 89.855469 44.589844 C 78.664062 38.3125 67.292969 31.851562 56.320312 25.363281 L 46.3125 19.480469 L 24.964844 31.824219 L 40.246094 40.648438 L 70.660156 58.292969 L 70.84375 58.292969 L 89.277344 68.875 L 94.976562 65.753906 L 95.160156 65.570312 L 110.65625 56.746094 Z M 117.507812 90.464844 L 94.765625 103.59375 L 90.640625 106.140625 L 90.460938 106.140625 L 86.335938 108.507812 L 79.273438 112.628906 L 79.089844 112.8125 L 76.332031 114.390625 C 76.332031 130.277344 76.332031 146.136719 76.332031 162.234375 C 76.332031 162.628906 76.148438 163.207031 75.9375 163.601562 C 75.148438 164.964844 73.390625 165.359375 72.023438 164.570312 L 45.160156 149.078125 C 44.191406 148.683594 43.582031 147.710938 43.582031 146.53125 C 43.582031 141.042969 43.582031 135.554688 43.582031 130.066406 L 17.902344 115.148438 C 16.535156 114.359375 15.929688 112.601562 16.71875 111.234375 C 17.113281 110.839844 17.507812 110.445312 17.902344 110.050781 L 29.273438 103.59375 L 43.582031 95.347656 L 43.582031 65.753906 C 43.582031 65.175781 43.582031 64.78125 43.976562 64.175781 C 44.765625 62.8125 46.34375 62.417969 47.707031 63.207031 L 73.570312 78.09375 L 83.578125 72.210938 L 68.113281 63.386719 L 67.929688 63.207031 L 37.335938 45.558594 L 17.902344 34.371094 C 17.507812 34.1875 17.113281 33.792969 16.71875 33.1875 C 15.929688 32.003906 16.535156 30.246094 17.902344 29.457031 L 44.765625 13.8125 C 45.734375 13.234375 46.738281 13.234375 47.707031 13.8125 L 59.257812 20.484375 L 67.6875 25.394531 L 117.6875 54.199219 L 117.871094 54.199219 L 117.871094 54.382812 L 118.234375 54.382812 L 118.234375 54.5625 L 118.417969 54.5625 L 118.417969 54.746094 L 118.597656 54.746094 L 118.597656 55.109375 L 118.78125 55.109375 L 118.78125 55.472656 L 118.960938 55.472656 L 118.960938 56.019531 L 119.144531 56.019531 L 119.144531 87.734375 C 119.265625 89.070312 118.476562 90.070312 117.507812 90.464844 Z M 92.007812 98.683594 L 113.382812 86.339844 L 113.382812 61.628906 L 97.890625 70.453125 L 97.890625 70.632812 L 70.660156 86.339844 L 67.539062 88.101562 L 67.355469 88.28125 L 65.777344 89.253906 L 48.101562 99.46875 C 47.917969 99.46875 47.707031 99.46875 47.523438 99.652344 L 32.242188 108.476562 L 24.996094 112.601562 L 46.371094 124.941406 L 72.054688 110.234375 L 72.238281 110.234375 L 76.148438 107.871094 L 76.332031 107.6875 L 83.578125 103.5625 L 87.703125 101.199219 L 87.882812 101.015625 Z M 70.660156 117.695312 L 58.105469 124.757812 L 49.285156 130.066406 C 49.285156 134.976562 49.285156 139.859375 49.285156 144.769531 L 70.660156 157.113281 C 70.660156 143.984375 70.660156 130.851562 70.660156 117.695312 Z M 67.902344 81.429688 L 49.285156 70.664062 L 49.285156 92.042969 L 62.808594 84.1875 L 64.382812 83.21875 L 64.566406 83.21875 Z M 67.902344 81.429688 " fill-opacity="1" fill-rule="nonzero"/></g><g transform="matrix(1, 0, 0, 1, 84, 75)"><g clip-path="url(#b0370ac1a7)"><g fill="#f8f5f2" fill-opacity="1"><g transform="translate(0.976405, 87.781112)"><g><path d="M 24.25 -4.203125 C 24.925781 -3.898438 25.992188 -3.628906 27.453125 -3.390625 C 28.859375 -3.140625 29.898438 -3.015625 30.578125 -3.015625 L 30.578125 0.1875 L 1.1875 0.1875 L 1.1875 -3.015625 C 1.914062 -3.078125 2.648438 -3.171875 3.390625 -3.296875 C 4.117188 -3.359375 4.757812 -3.476562 5.3125 -3.65625 C 6.226562 -3.96875 6.867188 -4.457031 7.234375 -5.125 C 7.597656 -5.789062 7.78125 -6.675781 7.78125 -7.78125 L 7.78125 -33.40625 C 7.78125 -34.445312 7.535156 -35.394531 7.046875 -36.25 C 6.492188 -37.039062 5.882812 -37.710938 5.21875 -38.265625 C 4.664062 -38.566406 3.992188 -38.835938 3.203125 -39.078125 C 2.410156 -39.328125 1.523438 -39.484375 0.546875 -39.546875 L 0.546875 -42.84375 L 21.515625 -43.9375 L 22.15625 -43.296875 L 22.15625 -8.328125 C 22.15625 -7.285156 22.335938 -6.429688 22.703125 -5.765625 C 23.003906 -5.097656 23.519531 -4.578125 24.25 -4.203125 Z M 42.109375 -42.65625 C 43.691406 -41.3125 44.539062 -39.601562 44.65625 -37.53125 C 44.78125 -35.457031 44.175781 -33.65625 42.84375 -32.125 C 41.4375 -30.601562 39.707031 -29.765625 37.65625 -29.609375 C 35.613281 -29.453125 33.832031 -30.046875 32.3125 -31.390625 C 32.25 -31.453125 32.203125 -31.5 32.171875 -31.53125 C 32.140625 -31.5625 32.125 -31.578125 32.125 -31.578125 C 31.09375 -32.492188 30.039062 -33.054688 28.96875 -33.265625 C 27.90625 -33.484375 26.882812 -33.53125 25.90625 -33.40625 L 24.890625 -34.046875 L 24.890625 -38.625 C 26.910156 -40.332031 28.726562 -41.597656 30.34375 -42.421875 C 31.957031 -43.242188 33.238281 -43.773438 34.1875 -44.015625 C 35.132812 -44.265625 35.609375 -44.390625 35.609375 -44.390625 L 35.609375 -44.296875 C 36.703125 -44.546875 37.828125 -44.53125 38.984375 -44.25 C 40.148438 -43.976562 41.191406 -43.445312 42.109375 -42.65625 Z M 42.109375 -42.65625 "/></g></g></g><g fill="#f8f5f2" fill-opacity="1"><g transform="translate(46.004244, 87.781112)"><g><path d="M 19.03125 -35.0625 C 18.425781 -33.40625 18 -31.453125 17.75 -29.203125 C 17.507812 -26.941406 17.390625 -24.59375 17.390625 -22.15625 C 17.390625 -18.976562 17.507812 -16.351562 17.75 -14.28125 C 17.9375 -12.144531 18.425781 -10.039062 19.21875 -7.96875 C 19.894531 -6.132812 20.875 -4.695312 22.15625 -3.65625 C 22.332031 -3.476562 22.578125 -3.296875 22.890625 -3.109375 L 22.890625 -2.375 C 21.847656 -1.882812 20.757812 -1.441406 19.625 -1.046875 C 18.5 -0.648438 17.507812 -0.300781 16.65625 0 C 16.59375 0 16.5625 0 16.5625 0 C 13.570312 -1.039062 10.921875 -2.597656 8.609375 -4.671875 C 6.347656 -6.617188 4.578125 -9.03125 3.296875 -11.90625 C 2.015625 -14.769531 1.375 -18 1.375 -21.59375 C 1.375 -25.132812 1.921875 -28.28125 3.015625 -31.03125 C 4.179688 -33.769531 5.890625 -36.210938 8.140625 -38.359375 C 10.273438 -40.367188 12.960938 -41.953125 16.203125 -43.109375 C 19.367188 -44.210938 22.90625 -44.765625 26.8125 -44.765625 C 26.875 -44.765625 26.953125 -44.765625 27.046875 -44.765625 C 27.140625 -44.765625 27.21875 -44.765625 27.28125 -44.765625 L 27.375 -44.203125 C 26.03125 -43.597656 24.851562 -42.789062 23.84375 -41.78125 C 22.832031 -40.78125 22.003906 -39.863281 21.359375 -39.03125 C 20.722656 -38.207031 20.375 -37.707031 20.3125 -37.53125 C 20.3125 -37.53125 20.285156 -37.53125 20.234375 -37.53125 C 19.742188 -36.789062 19.34375 -35.96875 19.03125 -35.0625 Z M 50.609375 -31.03125 C 51.773438 -28.21875 52.359375 -25.164062 52.359375 -21.875 C 52.359375 -18.644531 51.804688 -15.59375 50.703125 -12.71875 C 49.546875 -9.851562 47.898438 -7.382812 45.765625 -5.3125 C 43.441406 -3.113281 40.664062 -1.4375 37.4375 -0.28125 C 34.195312 0.945312 30.535156 1.5625 26.453125 1.5625 C 26.023438 1.5625 25.628906 1.546875 25.265625 1.515625 C 24.898438 1.484375 24.503906 1.4375 24.078125 1.375 L 24.078125 0.828125 C 26.515625 -0.148438 28.40625 -1.15625 29.75 -2.1875 C 31.09375 -3.226562 31.945312 -3.929688 32.3125 -4.296875 C 32.3125 -4.296875 32.3125 -4.328125 32.3125 -4.390625 C 32.375 -4.453125 32.421875 -4.5 32.453125 -4.53125 C 32.484375 -4.5625 32.5 -4.578125 32.5 -4.578125 C 33.289062 -5.492188 33.929688 -6.59375 34.421875 -7.875 C 35.085938 -9.519531 35.570312 -11.503906 35.875 -13.828125 C 36.1875 -16.140625 36.34375 -18.851562 36.34375 -21.96875 C 36.34375 -24.039062 36.1875 -26.390625 35.875 -29.015625 C 35.570312 -31.640625 35.144531 -33.710938 34.59375 -35.234375 C 33.863281 -37.128906 32.890625 -38.597656 31.671875 -39.640625 C 31.117188 -40.066406 30.414062 -40.429688 29.5625 -40.734375 L 29.375 -41.46875 C 30.289062 -42.070312 31.144531 -42.585938 31.9375 -43.015625 C 32.738281 -43.441406 33.410156 -43.78125 33.953125 -44.03125 C 34.628906 -43.90625 35.269531 -43.765625 35.875 -43.609375 C 36.488281 -43.460938 37.070312 -43.296875 37.625 -43.109375 C 40.789062 -41.953125 43.472656 -40.367188 45.671875 -38.359375 C 47.867188 -36.273438 49.515625 -33.832031 50.609375 -31.03125 Z M 50.609375 -31.03125 "/></g></g></g><g fill="#f8f5f2" fill-opacity="1"><g transform="translate(99.817995, 87.781112)"><g><path d="M 54.734375 -4.296875 C 55.953125 -4.117188 56.929688 -4.03125 57.671875 -4.03125 L 57.671875 -0.828125 L 35.96875 0.453125 L 35.234375 -0.28125 L 35.234375 -32.5 L 35.328125 -50.34375 L 35.234375 -50.34375 L 35.234375 -56.296875 C 35.234375 -57.390625 35.019531 -58.394531 34.59375 -59.3125 C 34.164062 -60.289062 33.585938 -61.050781 32.859375 -61.59375 C 31.941406 -62.207031 30.8125 -62.664062 29.46875 -62.96875 C 28.070312 -63.21875 26.703125 -63.398438 25.359375 -63.515625 L 25.359375 -66.71875 L 49.15625 -67.921875 L 49.796875 -67.1875 L 49.796875 -9.609375 C 49.796875 -8.453125 49.976562 -7.503906 50.34375 -6.765625 C 50.707031 -5.972656 51.285156 -5.363281 52.078125 -4.9375 C 52.691406 -4.632812 53.578125 -4.421875 54.734375 -4.296875 Z M 27.546875 -4.84375 C 29.316406 -4.84375 30.78125 -5.179688 31.9375 -5.859375 L 32.671875 -5.40625 L 32.671875 -2.203125 C 31.640625 -1.460938 30.484375 -0.789062 29.203125 -0.1875 C 26.753906 0.976562 24.3125 1.5625 21.875 1.5625 C 15.957031 1.5625 11.078125 -0.632812 7.234375 -5.03125 C 3.390625 -9.425781 1.46875 -15.132812 1.46875 -22.15625 C 1.46875 -28.3125 3.601562 -33.585938 7.875 -37.984375 C 12.144531 -42.441406 17.332031 -44.671875 23.4375 -44.671875 C 25.875 -44.671875 28.128906 -44.394531 30.203125 -43.84375 C 30.992188 -43.65625 31.785156 -43.410156 32.578125 -43.109375 L 32.578125 -39.359375 L 31.765625 -38.90625 C 31.335938 -39.207031 30.941406 -39.453125 30.578125 -39.640625 C 29.597656 -40.117188 28.5 -40.359375 27.28125 -40.359375 C 24.351562 -40.359375 21.941406 -38.710938 20.046875 -35.421875 C 18.148438 -32.066406 17.203125 -27.367188 17.203125 -21.328125 C 17.203125 -18.941406 17.382812 -16.804688 17.75 -14.921875 C 18.0625 -13.085938 18.644531 -11.378906 19.5 -9.796875 C 20.351562 -8.265625 21.453125 -7.039062 22.796875 -6.125 C 24.140625 -5.269531 25.722656 -4.84375 27.546875 -4.84375 Z M 27.546875 -4.84375 "/></g></g></g><g fill="#f8f5f2" fill-opacity="1"><g transform="translate(157.475584, 87.781112)"><g><path d="M 54.734375 -4.296875 C 55.953125 -4.117188 56.929688 -4.03125 57.671875 -4.03125 L 57.671875 -0.828125 L 35.96875 0.453125 L 35.234375 -0.28125 L 35.234375 -32.5 L 35.328125 -50.34375 L 35.234375 -50.34375 L 35.234375 -56.296875 C 35.234375 -57.390625 35.019531 -58.394531 34.59375 -59.3125 C 34.164062 -60.289062 33.585938 -61.050781 32.859375 -61.59375 C 31.941406 -62.207031 30.8125 -62.664062 29.46875 -62.96875 C 28.070312 -63.21875 26.703125 -63.398438 25.359375 -63.515625 L 25.359375 -66.71875 L 49.15625 -67.921875 L 49.796875 -67.1875 L 49.796875 -9.609375 C 49.796875 -8.453125 49.976562 -7.503906 50.34375 -6.765625 C 50.707031 -5.972656 51.285156 -5.363281 52.078125 -4.9375 C 52.691406 -4.632812 53.578125 -4.421875 54.734375 -4.296875 Z M 27.546875 -4.84375 C 29.316406 -4.84375 30.78125 -5.179688 31.9375 -5.859375 L 32.671875 -5.40625 L 32.671875 -2.203125 C 31.640625 -1.460938 30.484375 -0.789062 29.203125 -0.1875 C 26.753906 0.976562 24.3125 1.5625 21.875 1.5625 C 15.957031 1.5625 11.078125 -0.632812 7.234375 -5.03125 C 3.390625 -9.425781 1.46875 -15.132812 1.46875 -22.15625 C 1.46875 -28.3125 3.601562 -33.585938 7.875 -37.984375 C 12.144531 -42.441406 17.332031 -44.671875 23.4375 -44.671875 C 25.875 -44.671875 28.128906 -44.394531 30.203125 -43.84375 C 30.992188 -43.65625 31.785156 -43.410156 32.578125 -43.109375 L 32.578125 -39.359375 L 31.765625 -38.90625 C 31.335938 -39.207031 30.941406 -39.453125 30.578125 -39.640625 C 29.597656 -40.117188 28.5 -40.359375 27.28125 -40.359375 C 24.351562 -40.359375 21.941406 -38.710938 20.046875 -35.421875 C 18.148438 -32.066406 17.203125 -27.367188 17.203125 -21.328125 C 17.203125 -18.941406 17.382812 -16.804688 17.75 -14.921875 C 18.0625 -13.085938 18.644531 -11.378906 19.5 -9.796875 C 20.351562 -8.265625 21.453125 -7.039062 22.796875 -6.125 C 24.140625 -5.269531 25.722656 -4.84375 27.546875 -4.84375 Z M 27.546875 -4.84375 "/></g></g></g><g clip-path="url(#7872baa0d5)"><g fill="#f8f5f2" fill-opacity="1"><g transform="translate(215.133174, 87.781112)"><g><path d="M 49.421875 -42.203125 C 50.765625 -40.972656 51.539062 -39.457031 51.75 -37.65625 C 51.96875 -35.863281 51.585938 -34.234375 50.609375 -32.765625 L 37.25 -8.875 L 36.515625 -8.875 L 35.703125 -10.53125 C 35.703125 -10.53125 35.972656 -11.109375 36.515625 -12.265625 C 37.066406 -13.421875 37.691406 -14.882812 38.390625 -16.65625 C 39.097656 -18.425781 39.695312 -20.269531 40.1875 -22.1875 C 40.675781 -24.113281 40.890625 -25.898438 40.828125 -27.546875 C 40.765625 -29.191406 40.210938 -30.441406 39.171875 -31.296875 C 37.710938 -32.703125 36.9375 -34.441406 36.84375 -36.515625 C 36.75 -38.597656 37.4375 -40.367188 38.90625 -41.828125 C 40.300781 -43.359375 42.019531 -44.148438 44.0625 -44.203125 C 46.113281 -44.265625 47.898438 -43.597656 49.421875 -42.203125 Z M 23.0625 10.34375 L 23.984375 10.53125 L 24.890625 12.546875 C 23.242188 15.222656 21.671875 17.050781 20.171875 18.03125 C 18.679688 19.007812 17.507812 19.617188 16.65625 19.859375 C 14.820312 20.347656 13.050781 20.300781 11.34375 19.71875 C 9.632812 19.144531 8.320312 18.519531 7.40625 17.84375 C 5.882812 16.6875 4.957031 15.175781 4.625 13.3125 C 4.289062 11.457031 4.671875 9.734375 5.765625 8.140625 C 6.859375 6.617188 8.351562 5.6875 10.25 5.34375 C 12.144531 5.007812 13.882812 5.425781 15.46875 6.59375 C 16.382812 7.257812 17.085938 8.097656 17.578125 9.109375 C 18.066406 10.117188 18.3125 11.140625 18.3125 12.171875 C 18.3125 13.328125 18.492188 13.984375 18.859375 14.140625 C 19.222656 14.296875 19.660156 14.160156 20.171875 13.734375 C 20.691406 13.304688 21.226562 12.753906 21.78125 12.078125 C 22.332031 11.410156 22.757812 10.832031 23.0625 10.34375 Z M 25.8125 -26.09375 C 26.476562 -24.5625 27.175781 -23 27.90625 -21.40625 C 28.644531 -19.820312 29.378906 -18.175781 30.109375 -16.46875 L 35.234375 -5.3125 L 31.765625 0.828125 L 27 9.0625 L 26.09375 8.96875 C 25.238281 6.957031 24.226562 4.625 23.0625 1.96875 C 21.90625 -0.6875 20.742188 -3.351562 19.578125 -6.03125 C 18.421875 -8.71875 17.335938 -11.175781 16.328125 -13.40625 C 15.328125 -15.632812 14.550781 -17.390625 14 -18.671875 C 12.84375 -21.234375 11.640625 -23.898438 10.390625 -26.671875 C 9.140625 -29.453125 7.84375 -32.304688 6.5 -35.234375 C 5.882812 -36.640625 4.9375 -37.738281 3.65625 -38.53125 C 2.375 -39.320312 1.0625 -39.8125 -0.28125 -40 L -0.28125 -43.203125 L 26.453125 -43.203125 L 26.453125 -40 C 25.472656 -39.9375 24.3125 -39.691406 22.96875 -39.265625 C 21.6875 -38.898438 21.046875 -38.378906 21.046875 -37.703125 C 21.046875 -37.523438 21.109375 -37.285156 21.234375 -36.984375 C 21.296875 -36.609375 21.414062 -36.207031 21.59375 -35.78125 C 22.507812 -33.59375 23.914062 -30.363281 25.8125 -26.09375 Z M 25.8125 -26.09375 "/></g></g></g></g></g></g></svg>