<svg xmlns="http://www.w3.org/2000/svg" xmlns:xlink="http://www.w3.org/1999/xlink" width="500" zoomAndPan="magnify" viewBox="0 0 375 374.999991" height="500" preserveAspectRatio="xMidYMid meet" version="1.0"><defs><clipPath id="0996533e13"><path d="M 79 26.578125 L 296.457031 26.578125 L 296.457031 348 L 79 348 Z M 79 26.578125 " clip-rule="nonzero"/></clipPath></defs><g clip-path="url(#0996533e13)"><path fill="#f8f5f2" d="M 234.570312 92.929688 C 210.90625 79.652344 186.855469 65.992188 163.636719 52.265625 L 142.472656 39.824219 L 97.320312 65.929688 L 129.644531 84.589844 L 193.972656 121.917969 L 194.359375 121.917969 L 233.355469 144.304688 L 245.410156 137.695312 L 245.796875 137.3125 L 278.570312 118.648438 Z M 293.066406 189.96875 L 244.960938 217.738281 L 236.238281 223.128906 L 235.855469 223.128906 L 227.132812 228.128906 L 212.1875 236.851562 L 211.804688 237.238281 L 205.96875 240.574219 C 205.96875 274.179688 205.96875 307.722656 205.96875 341.78125 C 205.96875 342.613281 205.582031 343.832031 205.132812 344.667969 C 203.464844 347.550781 199.746094 348.386719 196.859375 346.71875 L 140.035156 313.945312 C 137.980469 313.109375 136.699219 311.058594 136.699219 308.558594 C 136.699219 296.949219 136.699219 285.339844 136.699219 273.730469 L 82.375 242.175781 C 79.488281 240.507812 78.207031 236.789062 79.875 233.902344 C 80.707031 233.070312 81.542969 232.234375 82.375 231.402344 L 106.425781 217.738281 L 136.699219 200.292969 L 136.699219 137.695312 C 136.699219 136.476562 136.699219 135.644531 137.53125 134.363281 C 139.199219 131.476562 142.535156 130.640625 145.421875 132.308594 L 200.128906 163.800781 L 221.296875 151.359375 L 188.585938 132.695312 L 188.203125 132.308594 L 123.488281 94.980469 L 82.375 71.316406 C 81.542969 70.929688 80.707031 70.097656 79.875 68.8125 C 78.207031 66.3125 79.488281 62.59375 82.375 60.925781 L 139.199219 27.832031 C 141.253906 26.613281 143.371094 26.613281 145.421875 27.832031 L 169.859375 41.941406 L 187.6875 52.332031 L 293.449219 113.261719 L 293.835938 113.261719 L 293.835938 113.644531 L 294.605469 113.644531 L 294.605469 114.03125 L 294.988281 114.03125 L 294.988281 114.414062 L 295.375 114.414062 L 295.375 115.183594 L 295.757812 115.183594 L 295.757812 115.953125 L 296.144531 115.953125 L 296.144531 117.109375 L 296.527344 117.109375 L 296.527344 184.195312 C 296.785156 187.019531 295.117188 189.132812 293.066406 189.96875 Z M 239.125 207.347656 L 284.34375 181.246094 L 284.34375 128.972656 L 251.570312 147.636719 L 251.570312 148.023438 L 193.972656 181.246094 L 187.367188 184.964844 L 186.984375 185.351562 L 183.648438 187.402344 L 146.253906 209.015625 C 145.871094 209.015625 145.421875 209.015625 145.039062 209.402344 L 112.710938 228.066406 L 97.382812 236.789062 L 142.601562 262.890625 L 196.925781 231.785156 L 197.308594 231.785156 L 205.582031 226.78125 L 205.96875 226.398438 L 221.296875 217.675781 L 230.019531 212.671875 L 230.402344 212.289062 Z M 193.972656 247.5625 L 167.421875 262.507812 L 148.757812 273.730469 C 148.757812 284.121094 148.757812 294.445312 148.757812 304.835938 L 193.972656 330.941406 C 193.972656 303.167969 193.972656 275.398438 193.972656 247.5625 Z M 188.136719 170.855469 L 148.757812 148.085938 L 148.757812 193.304688 L 177.363281 176.691406 L 180.695312 174.640625 L 181.082031 174.640625 Z M 188.136719 170.855469 " fill-opacity="1" fill-rule="nonzero"/></g></svg>